<svg width="21" height="20" viewBox="0 0 21 20" fill="none" xmlns="http://www.w3.org/2000/svg">
<path d="M1 10.9912V18.4912" stroke="#1C1C1C" stroke-width="1.6" stroke-linecap="round" stroke-linejoin="round"/>
<path d="M13.5 17.2412C13.5 16.5782 13.2366 15.9423 12.7678 15.4734C12.2989 15.0046 11.663 14.7412 11 14.7412H7.875C7.875 14.0782 7.61161 13.4423 7.14277 12.9734C6.67393 12.5046 6.03804 12.2412 5.375 12.2412H1V17.2412H13.5Z" stroke="#1C1C1C" stroke-width="1.6" stroke-linecap="round" stroke-linejoin="round"/>
<path d="M10.375 7.24137C10.375 7.24137 9.09917 9.42471 7.25 9.11637C3.5 8.49137 4.125 3.49137 2.875 1.61637C4.08577 1.12141 5.3965 0.920008 6.70002 1.02863C8.00354 1.13726 9.26285 1.55283 10.375 2.24137C12.25 3.49137 12.25 5.36637 10.375 7.24137Z" stroke="#1C1C1C" stroke-width="1.6" stroke-linecap="round" stroke-linejoin="round"/>
<path d="M14.477 9.0729C14.477 9.0729 15.3629 10.5887 16.6437 10.3754C19.2479 9.94123 18.8104 6.46873 19.682 5.16623C18.8412 4.82255 17.931 4.68272 17.0257 4.75818C16.1205 4.83364 15.246 5.12224 14.4737 5.6004C13.1762 6.46873 13.1762 7.7704 14.477 9.0729Z" stroke="#1C1C1C" stroke-width="1.6" stroke-linecap="round" stroke-linejoin="round"/>
<path d="M7.875 4.74121C7.875 4.74121 11 5.36621 12.25 11.6162C12.9797 10.1362 14.0508 8.85084 15.375 7.86621" stroke="#1C1C1C" stroke-width="1.6" stroke-linecap="round" stroke-linejoin="round"/>
</svg>
